<mxfile host="app.diagrams.net" agent="Mozilla/5.0 (Windows NT 10.0; Win64; x64) AppleWebKit/537.36 (KHTML, like Gecko) Chrome/132.0.0.0 Safari/537.36" version="26.0.11">
  <diagram name="Page-1" id="5rLp6xjTCe0kxzZpEM4s">
    <mxGraphModel dx="1050" dy="530" grid="1" gridSize="10" guides="1" tooltips="1" connect="1" arrows="1" fold="1" page="1" pageScale="1" pageWidth="827" pageHeight="1169" math="0" shadow="0">
      <root>
        <mxCell id="0" />
        <mxCell id="1" parent="0" />
        <mxCell id="XYKvKg4-RM_z0EVxym5r-1" value="Web Scrapping" style="rounded=1;whiteSpace=wrap;html=1;" vertex="1" parent="1">
          <mxGeometry x="360" y="20" width="120" height="60" as="geometry" />
        </mxCell>
        <mxCell id="XYKvKg4-RM_z0EVxym5r-2" value="API publique" style="rounded=1;whiteSpace=wrap;html=1;" vertex="1" parent="1">
          <mxGeometry x="200" y="20" width="120" height="60" as="geometry" />
        </mxCell>
        <mxCell id="XYKvKg4-RM_z0EVxym5r-3" value="Stockage&lt;br&gt;Aggrégation&lt;br&gt;Nettoyage" style="rounded=1;whiteSpace=wrap;html=1;" vertex="1" parent="1">
          <mxGeometry x="280" y="120" width="120" height="80" as="geometry" />
        </mxCell>
        <mxCell id="XYKvKg4-RM_z0EVxym5r-6" value="" style="endArrow=classic;html=1;rounded=0;entryX=0.75;entryY=0;entryDx=0;entryDy=0;exitX=0.5;exitY=1;exitDx=0;exitDy=0;" edge="1" parent="1" source="XYKvKg4-RM_z0EVxym5r-1" target="XYKvKg4-RM_z0EVxym5r-3">
          <mxGeometry width="50" height="50" relative="1" as="geometry">
            <mxPoint x="420" y="110" as="sourcePoint" />
            <mxPoint x="440" y="250" as="targetPoint" />
          </mxGeometry>
        </mxCell>
        <mxCell id="XYKvKg4-RM_z0EVxym5r-7" value="" style="endArrow=classic;html=1;rounded=0;entryX=0.25;entryY=0;entryDx=0;entryDy=0;exitX=0.5;exitY=1;exitDx=0;exitDy=0;" edge="1" parent="1" source="XYKvKg4-RM_z0EVxym5r-2" target="XYKvKg4-RM_z0EVxym5r-3">
          <mxGeometry width="50" height="50" relative="1" as="geometry">
            <mxPoint x="310" y="150" as="sourcePoint" />
            <mxPoint x="359" y="199" as="targetPoint" />
          </mxGeometry>
        </mxCell>
        <mxCell id="XYKvKg4-RM_z0EVxym5r-10" value="SQL" style="rounded=1;whiteSpace=wrap;html=1;" vertex="1" parent="1">
          <mxGeometry x="230" y="240" width="70" height="40" as="geometry" />
        </mxCell>
        <mxCell id="XYKvKg4-RM_z0EVxym5r-11" value="NoSQL" style="rounded=1;whiteSpace=wrap;html=1;" vertex="1" parent="1">
          <mxGeometry x="379" y="240" width="70" height="40" as="geometry" />
        </mxCell>
        <mxCell id="XYKvKg4-RM_z0EVxym5r-12" value="Requêtes" style="rounded=1;whiteSpace=wrap;html=1;" vertex="1" parent="1">
          <mxGeometry x="295" y="320" width="90" height="40" as="geometry" />
        </mxCell>
        <mxCell id="XYKvKg4-RM_z0EVxym5r-13" value="" style="endArrow=classic;html=1;rounded=0;exitX=0.25;exitY=1;exitDx=0;exitDy=0;entryX=0.75;entryY=0;entryDx=0;entryDy=0;" edge="1" parent="1" source="XYKvKg4-RM_z0EVxym5r-3" target="XYKvKg4-RM_z0EVxym5r-10">
          <mxGeometry width="50" height="50" relative="1" as="geometry">
            <mxPoint x="390" y="300" as="sourcePoint" />
            <mxPoint x="440" y="250" as="targetPoint" />
          </mxGeometry>
        </mxCell>
        <mxCell id="XYKvKg4-RM_z0EVxym5r-14" value="" style="endArrow=classic;html=1;rounded=0;exitX=0.75;exitY=1;exitDx=0;exitDy=0;entryX=0.25;entryY=0;entryDx=0;entryDy=0;" edge="1" parent="1" source="XYKvKg4-RM_z0EVxym5r-3" target="XYKvKg4-RM_z0EVxym5r-11">
          <mxGeometry width="50" height="50" relative="1" as="geometry">
            <mxPoint x="320" y="270" as="sourcePoint" />
            <mxPoint x="293" y="310" as="targetPoint" />
          </mxGeometry>
        </mxCell>
        <mxCell id="XYKvKg4-RM_z0EVxym5r-15" value="Mon API" style="rounded=1;whiteSpace=wrap;html=1;" vertex="1" parent="1">
          <mxGeometry x="280" y="400" width="120" height="60" as="geometry" />
        </mxCell>
        <mxCell id="XYKvKg4-RM_z0EVxym5r-16" value="" style="endArrow=classic;html=1;rounded=0;exitX=0.5;exitY=1;exitDx=0;exitDy=0;entryX=0.5;entryY=0;entryDx=0;entryDy=0;" edge="1" parent="1" source="XYKvKg4-RM_z0EVxym5r-12" target="XYKvKg4-RM_z0EVxym5r-15">
          <mxGeometry width="50" height="50" relative="1" as="geometry">
            <mxPoint x="390" y="300" as="sourcePoint" />
            <mxPoint x="440" y="250" as="targetPoint" />
          </mxGeometry>
        </mxCell>
        <mxCell id="XYKvKg4-RM_z0EVxym5r-17" value="" style="endArrow=classic;html=1;rounded=0;exitX=0.75;exitY=1;exitDx=0;exitDy=0;entryX=0.167;entryY=-0.02;entryDx=0;entryDy=0;entryPerimeter=0;" edge="1" parent="1" source="XYKvKg4-RM_z0EVxym5r-10" target="XYKvKg4-RM_z0EVxym5r-12">
          <mxGeometry width="50" height="50" relative="1" as="geometry">
            <mxPoint x="390" y="300" as="sourcePoint" />
            <mxPoint x="440" y="250" as="targetPoint" />
          </mxGeometry>
        </mxCell>
        <mxCell id="XYKvKg4-RM_z0EVxym5r-18" value="" style="endArrow=classic;html=1;rounded=0;exitX=0.25;exitY=1;exitDx=0;exitDy=0;entryX=0.842;entryY=-0.1;entryDx=0;entryDy=0;entryPerimeter=0;" edge="1" parent="1" source="XYKvKg4-RM_z0EVxym5r-11" target="XYKvKg4-RM_z0EVxym5r-12">
          <mxGeometry width="50" height="50" relative="1" as="geometry">
            <mxPoint x="540" y="340" as="sourcePoint" />
            <mxPoint x="590" y="290" as="targetPoint" />
          </mxGeometry>
        </mxCell>
        <mxCell id="XYKvKg4-RM_z0EVxym5r-19" value="" style="rounded=0;whiteSpace=wrap;html=1;fillColor=none;strokeColor=#FF6666;gradientColor=#FFCCCC;gradientDirection=radial;strokeWidth=2;" vertex="1" parent="1">
          <mxGeometry x="180" y="10" width="310" height="80" as="geometry" />
        </mxCell>
        <mxCell id="XYKvKg4-RM_z0EVxym5r-20" value="" style="rounded=0;whiteSpace=wrap;html=1;fillColor=none;strokeColor=#FF6666;gradientColor=#FFCCCC;gradientDirection=radial;strokeWidth=2;" vertex="1" parent="1">
          <mxGeometry x="270" y="110" width="140" height="100" as="geometry" />
        </mxCell>
        <mxCell id="XYKvKg4-RM_z0EVxym5r-21" value="" style="rounded=0;whiteSpace=wrap;html=1;fillColor=none;strokeColor=#FF6666;gradientColor=#FFCCCC;gradientDirection=radial;strokeWidth=2;" vertex="1" parent="1">
          <mxGeometry x="220" y="230" width="240" height="60" as="geometry" />
        </mxCell>
        <mxCell id="XYKvKg4-RM_z0EVxym5r-22" value="" style="rounded=0;whiteSpace=wrap;html=1;fillColor=none;strokeColor=#FF6666;gradientColor=#FFCCCC;gradientDirection=radial;strokeWidth=2;" vertex="1" parent="1">
          <mxGeometry x="280" y="310" width="120" height="60" as="geometry" />
        </mxCell>
        <mxCell id="XYKvKg4-RM_z0EVxym5r-23" value="" style="rounded=0;whiteSpace=wrap;html=1;fillColor=none;strokeColor=#FF6666;gradientColor=#FFCCCC;gradientDirection=radial;strokeWidth=2;" vertex="1" parent="1">
          <mxGeometry x="270" y="390" width="140" height="80" as="geometry" />
        </mxCell>
        <mxCell id="XYKvKg4-RM_z0EVxym5r-24" value="&lt;font style=&quot;font-size: 17px; color: rgb(255, 0, 0);&quot;&gt;&lt;b&gt;1&lt;/b&gt;&lt;/font&gt;" style="rounded=0;whiteSpace=wrap;html=1;fillColor=none;strokeColor=none;" vertex="1" parent="1">
          <mxGeometry x="500" y="60" width="30" height="30" as="geometry" />
        </mxCell>
        <mxCell id="XYKvKg4-RM_z0EVxym5r-25" value="&lt;font style=&quot;font-size: 17px; color: rgb(255, 0, 0);&quot;&gt;&lt;b&gt;2&lt;/b&gt;&lt;/font&gt;" style="rounded=0;whiteSpace=wrap;html=1;fillColor=none;strokeColor=none;" vertex="1" parent="1">
          <mxGeometry x="410" y="340" width="30" height="30" as="geometry" />
        </mxCell>
        <mxCell id="XYKvKg4-RM_z0EVxym5r-26" value="&lt;font style=&quot;font-size: 17px; color: rgb(255, 0, 0);&quot;&gt;&lt;b&gt;3&lt;/b&gt;&lt;/font&gt;" style="rounded=0;whiteSpace=wrap;html=1;fillColor=none;strokeColor=none;" vertex="1" parent="1">
          <mxGeometry x="419" y="180" width="30" height="30" as="geometry" />
        </mxCell>
        <mxCell id="XYKvKg4-RM_z0EVxym5r-27" value="&lt;font style=&quot;font-size: 17px; color: rgb(255, 0, 0);&quot;&gt;&lt;b&gt;4&lt;/b&gt;&lt;/font&gt;" style="rounded=0;whiteSpace=wrap;html=1;fillColor=none;strokeColor=none;" vertex="1" parent="1">
          <mxGeometry x="470" y="260" width="30" height="30" as="geometry" />
        </mxCell>
        <mxCell id="XYKvKg4-RM_z0EVxym5r-28" value="&lt;font style=&quot;font-size: 17px; color: rgb(255, 0, 0);&quot;&gt;&lt;b&gt;5&lt;/b&gt;&lt;/font&gt;" style="rounded=0;whiteSpace=wrap;html=1;fillColor=none;strokeColor=none;" vertex="1" parent="1">
          <mxGeometry x="419" y="440" width="30" height="30" as="geometry" />
        </mxCell>
      </root>
    </mxGraphModel>
  </diagram>
</mxfile>
